<mxfile host="app.diagrams.net" modified="2023-08-10T07:40:43.049Z" agent="Mozilla/5.0 (Windows NT 10.0; Win64; x64) AppleWebKit/537.36 (KHTML, like Gecko) Chrome/115.0.0.0 Safari/537.36" etag="r-qfqSmEoTH7RvFZuub-" version="21.6.7" type="device">
  <diagram name="Страница — 1" id="9YvErZiBnva58vQW3OUi">
    <mxGraphModel dx="1195" dy="614" grid="1" gridSize="10" guides="1" tooltips="1" connect="1" arrows="1" fold="1" page="1" pageScale="1" pageWidth="827" pageHeight="1169" math="0" shadow="0">
      <root>
        <mxCell id="0" />
        <mxCell id="1" parent="0" />
        <mxCell id="HjVEWoM3Lkzaa9PTXGWl-1" value="" style="rounded=0;whiteSpace=wrap;html=1;align=left;" vertex="1" parent="1">
          <mxGeometry x="40" y="70" width="140" height="110" as="geometry" />
        </mxCell>
        <mxCell id="HjVEWoM3Lkzaa9PTXGWl-2" value="&lt;span style=&quot;color: rgb(33, 33, 33); font-family: monospace; font-size: 14px; font-style: normal; font-variant-ligatures: normal; font-variant-caps: normal; font-weight: 700; letter-spacing: normal; orphans: 2; text-align: right; text-indent: 0px; text-transform: none; widows: 2; word-spacing: 0px; -webkit-text-stroke-width: 0px; background-color: rgb(255, 255, 255); text-decoration-thickness: initial; text-decoration-style: initial; text-decoration-color: initial; float: none; display: inline !important;&quot;&gt;Pclass&lt;/span&gt;" style="text;whiteSpace=wrap;html=1;" vertex="1" parent="1">
          <mxGeometry x="40" y="40" width="80" height="30" as="geometry" />
        </mxCell>
        <mxCell id="HjVEWoM3Lkzaa9PTXGWl-3" value="id_Pclass:&amp;nbsp; &amp;nbsp; int" style="text;html=1;align=left;verticalAlign=middle;resizable=0;points=[];autosize=1;strokeColor=none;fillColor=none;" vertex="1" parent="1">
          <mxGeometry x="40" y="70" width="100" height="30" as="geometry" />
        </mxCell>
        <mxCell id="HjVEWoM3Lkzaa9PTXGWl-6" value="name_Pclass:&amp;nbsp; &amp;nbsp; text" style="text;html=1;align=left;verticalAlign=middle;resizable=0;points=[];autosize=1;strokeColor=none;fillColor=none;" vertex="1" parent="1">
          <mxGeometry x="40" y="100" width="130" height="30" as="geometry" />
        </mxCell>
        <mxCell id="HjVEWoM3Lkzaa9PTXGWl-7" value="" style="endArrow=none;html=1;rounded=0;exitX=0;exitY=0.25;exitDx=0;exitDy=0;entryX=1;entryY=0.25;entryDx=0;entryDy=0;align=left;" edge="1" parent="1" source="HjVEWoM3Lkzaa9PTXGWl-1" target="HjVEWoM3Lkzaa9PTXGWl-1">
          <mxGeometry width="50" height="50" relative="1" as="geometry">
            <mxPoint x="390" y="410" as="sourcePoint" />
            <mxPoint x="440" y="360" as="targetPoint" />
          </mxGeometry>
        </mxCell>
        <mxCell id="HjVEWoM3Lkzaa9PTXGWl-8" value="" style="rounded=0;whiteSpace=wrap;html=1;align=left;" vertex="1" parent="1">
          <mxGeometry x="241" y="70" width="169" height="110" as="geometry" />
        </mxCell>
        <mxCell id="HjVEWoM3Lkzaa9PTXGWl-9" value="&lt;b&gt;Cabin&lt;/b&gt;" style="text;whiteSpace=wrap;html=1;" vertex="1" parent="1">
          <mxGeometry x="241" y="35" width="80" height="30" as="geometry" />
        </mxCell>
        <mxCell id="HjVEWoM3Lkzaa9PTXGWl-10" value="id_Cabin:&amp;nbsp; &amp;nbsp; int" style="text;html=1;align=center;verticalAlign=middle;resizable=0;points=[];autosize=1;strokeColor=none;fillColor=none;" vertex="1" parent="1">
          <mxGeometry x="241" y="65" width="100" height="30" as="geometry" />
        </mxCell>
        <mxCell id="HjVEWoM3Lkzaa9PTXGWl-11" value="name_Cabin:&amp;nbsp; &amp;nbsp; text" style="text;html=1;align=left;verticalAlign=middle;resizable=0;points=[];autosize=1;strokeColor=none;fillColor=none;" vertex="1" parent="1">
          <mxGeometry x="241" y="95" width="130" height="30" as="geometry" />
        </mxCell>
        <mxCell id="HjVEWoM3Lkzaa9PTXGWl-12" value="" style="endArrow=none;html=1;rounded=0;exitX=0;exitY=0.25;exitDx=0;exitDy=0;entryX=1;entryY=0.25;entryDx=0;entryDy=0;align=left;" edge="1" parent="1" source="HjVEWoM3Lkzaa9PTXGWl-8" target="HjVEWoM3Lkzaa9PTXGWl-8">
          <mxGeometry width="50" height="50" relative="1" as="geometry">
            <mxPoint x="591" y="405" as="sourcePoint" />
            <mxPoint x="641" y="355" as="targetPoint" />
          </mxGeometry>
        </mxCell>
        <mxCell id="HjVEWoM3Lkzaa9PTXGWl-14" value="id_Pclass:&amp;nbsp; &amp;nbsp; int &quot;foreign key&quot;" style="text;html=1;align=left;verticalAlign=middle;resizable=0;points=[];autosize=1;strokeColor=none;fillColor=none;" vertex="1" parent="1">
          <mxGeometry x="241" y="125" width="170" height="30" as="geometry" />
        </mxCell>
        <mxCell id="HjVEWoM3Lkzaa9PTXGWl-16" value="" style="rounded=0;whiteSpace=wrap;html=1;align=left;" vertex="1" parent="1">
          <mxGeometry x="480" y="240" width="200" height="130" as="geometry" />
        </mxCell>
        <mxCell id="HjVEWoM3Lkzaa9PTXGWl-17" value="&lt;b&gt;Ticket&lt;/b&gt;" style="text;whiteSpace=wrap;html=1;" vertex="1" parent="1">
          <mxGeometry x="480" y="210" width="80" height="30" as="geometry" />
        </mxCell>
        <mxCell id="HjVEWoM3Lkzaa9PTXGWl-18" value="id_Ticket:&amp;nbsp; &amp;nbsp; int" style="text;html=1;align=left;verticalAlign=middle;resizable=0;points=[];autosize=1;strokeColor=none;fillColor=none;" vertex="1" parent="1">
          <mxGeometry x="480" y="240" width="100" height="30" as="geometry" />
        </mxCell>
        <mxCell id="HjVEWoM3Lkzaa9PTXGWl-19" value="number Ticket:&amp;nbsp; &amp;nbsp; text" style="text;html=1;align=left;verticalAlign=middle;resizable=0;points=[];autosize=1;strokeColor=none;fillColor=none;" vertex="1" parent="1">
          <mxGeometry x="480" y="270" width="130" height="30" as="geometry" />
        </mxCell>
        <mxCell id="HjVEWoM3Lkzaa9PTXGWl-20" value="" style="endArrow=none;html=1;rounded=0;exitX=0;exitY=0.25;exitDx=0;exitDy=0;entryX=1;entryY=0.25;entryDx=0;entryDy=0;align=left;" edge="1" parent="1" source="HjVEWoM3Lkzaa9PTXGWl-16" target="HjVEWoM3Lkzaa9PTXGWl-16">
          <mxGeometry width="50" height="50" relative="1" as="geometry">
            <mxPoint x="830" y="580" as="sourcePoint" />
            <mxPoint x="880" y="530" as="targetPoint" />
          </mxGeometry>
        </mxCell>
        <mxCell id="HjVEWoM3Lkzaa9PTXGWl-21" value="id_&lt;span style=&quot;border-color: var(--border-color);&quot;&gt;Cabin&lt;/span&gt;:&amp;nbsp; &amp;nbsp; int &quot;foreign key&quot;" style="text;html=1;align=left;verticalAlign=middle;resizable=0;points=[];autosize=1;strokeColor=none;fillColor=none;" vertex="1" parent="1">
          <mxGeometry x="480" y="310" width="170" height="30" as="geometry" />
        </mxCell>
        <mxCell id="HjVEWoM3Lkzaa9PTXGWl-22" value="Fare Ticket:&amp;nbsp; &amp;nbsp; text" style="text;html=1;align=left;verticalAlign=middle;resizable=0;points=[];autosize=1;strokeColor=none;fillColor=none;" vertex="1" parent="1">
          <mxGeometry x="480" y="290" width="120" height="30" as="geometry" />
        </mxCell>
        <mxCell id="HjVEWoM3Lkzaa9PTXGWl-45" value="" style="edgeStyle=entityRelationEdgeStyle;fontSize=12;html=1;endArrow=ERoneToMany;rounded=0;exitX=1.012;exitY=0.145;exitDx=0;exitDy=0;exitPerimeter=0;" edge="1" parent="1" source="HjVEWoM3Lkzaa9PTXGWl-1" target="HjVEWoM3Lkzaa9PTXGWl-14">
          <mxGeometry width="100" height="100" relative="1" as="geometry">
            <mxPoint x="370" y="340" as="sourcePoint" />
            <mxPoint x="470" y="240" as="targetPoint" />
          </mxGeometry>
        </mxCell>
        <mxCell id="HjVEWoM3Lkzaa9PTXGWl-46" value="id_Embarked:&amp;nbsp; &amp;nbsp; int &quot;foreign key&quot;" style="text;html=1;align=left;verticalAlign=middle;resizable=0;points=[];autosize=1;strokeColor=none;fillColor=none;" vertex="1" parent="1">
          <mxGeometry x="480" y="330" width="190" height="30" as="geometry" />
        </mxCell>
        <mxCell id="HjVEWoM3Lkzaa9PTXGWl-47" value="" style="rounded=0;whiteSpace=wrap;html=1;align=left;" vertex="1" parent="1">
          <mxGeometry x="40" y="240" width="140" height="60" as="geometry" />
        </mxCell>
        <mxCell id="HjVEWoM3Lkzaa9PTXGWl-48" value="&lt;b&gt;Embarked&lt;/b&gt;" style="text;whiteSpace=wrap;html=1;" vertex="1" parent="1">
          <mxGeometry x="40" y="210" width="80" height="30" as="geometry" />
        </mxCell>
        <mxCell id="HjVEWoM3Lkzaa9PTXGWl-49" value="id_Embarked:&amp;nbsp; &amp;nbsp; int" style="text;html=1;align=left;verticalAlign=middle;resizable=0;points=[];autosize=1;strokeColor=none;fillColor=none;" vertex="1" parent="1">
          <mxGeometry x="40" y="240" width="120" height="30" as="geometry" />
        </mxCell>
        <mxCell id="HjVEWoM3Lkzaa9PTXGWl-50" value="name_Embarked:&amp;nbsp; &amp;nbsp; text" style="text;html=1;align=left;verticalAlign=middle;resizable=0;points=[];autosize=1;strokeColor=none;fillColor=none;" vertex="1" parent="1">
          <mxGeometry x="40" y="270" width="150" height="30" as="geometry" />
        </mxCell>
        <mxCell id="HjVEWoM3Lkzaa9PTXGWl-51" value="" style="endArrow=none;html=1;rounded=0;exitX=0;exitY=0.25;exitDx=0;exitDy=0;entryX=1;entryY=0.25;entryDx=0;entryDy=0;align=left;" edge="1" parent="1">
          <mxGeometry width="50" height="50" relative="1" as="geometry">
            <mxPoint x="40" y="270" as="sourcePoint" />
            <mxPoint x="180" y="270" as="targetPoint" />
          </mxGeometry>
        </mxCell>
        <mxCell id="HjVEWoM3Lkzaa9PTXGWl-52" value="" style="edgeStyle=entityRelationEdgeStyle;fontSize=12;html=1;endArrow=ERoneToMany;rounded=0;exitX=1;exitY=0.25;exitDx=0;exitDy=0;entryX=-0.01;entryY=0.478;entryDx=0;entryDy=0;entryPerimeter=0;" edge="1" parent="1" source="HjVEWoM3Lkzaa9PTXGWl-47" target="HjVEWoM3Lkzaa9PTXGWl-46">
          <mxGeometry width="100" height="100" relative="1" as="geometry">
            <mxPoint x="370" y="340" as="sourcePoint" />
            <mxPoint x="470" y="240" as="targetPoint" />
          </mxGeometry>
        </mxCell>
        <mxCell id="HjVEWoM3Lkzaa9PTXGWl-53" value="" style="edgeStyle=entityRelationEdgeStyle;fontSize=12;html=1;endArrow=ERoneToMany;rounded=0;exitX=1.015;exitY=0.13;exitDx=0;exitDy=0;exitPerimeter=0;entryX=-0.006;entryY=0.506;entryDx=0;entryDy=0;entryPerimeter=0;" edge="1" parent="1" source="HjVEWoM3Lkzaa9PTXGWl-8" target="HjVEWoM3Lkzaa9PTXGWl-21">
          <mxGeometry width="100" height="100" relative="1" as="geometry">
            <mxPoint x="370" y="340" as="sourcePoint" />
            <mxPoint x="470" y="240" as="targetPoint" />
          </mxGeometry>
        </mxCell>
        <mxCell id="HjVEWoM3Lkzaa9PTXGWl-55" value="" style="rounded=0;whiteSpace=wrap;html=1;align=left;" vertex="1" parent="1">
          <mxGeometry x="480" y="430" width="190" height="110" as="geometry" />
        </mxCell>
        <mxCell id="HjVEWoM3Lkzaa9PTXGWl-57" value="PassengerId: int" style="text;html=1;align=left;verticalAlign=middle;resizable=0;points=[];autosize=1;strokeColor=none;fillColor=none;" vertex="1" parent="1">
          <mxGeometry x="480" y="430" width="110" height="30" as="geometry" />
        </mxCell>
        <mxCell id="HjVEWoM3Lkzaa9PTXGWl-58" value="Survived:&amp;nbsp; &amp;nbsp; bool" style="text;html=1;align=left;verticalAlign=middle;resizable=0;points=[];autosize=1;strokeColor=none;fillColor=none;" vertex="1" parent="1">
          <mxGeometry x="480" y="460" width="110" height="30" as="geometry" />
        </mxCell>
        <mxCell id="HjVEWoM3Lkzaa9PTXGWl-59" value="" style="endArrow=none;html=1;rounded=0;exitX=0;exitY=0.25;exitDx=0;exitDy=0;entryX=1;entryY=0.25;entryDx=0;entryDy=0;align=left;" edge="1" parent="1" source="HjVEWoM3Lkzaa9PTXGWl-55" target="HjVEWoM3Lkzaa9PTXGWl-55">
          <mxGeometry width="50" height="50" relative="1" as="geometry">
            <mxPoint x="830" y="770" as="sourcePoint" />
            <mxPoint x="880" y="720" as="targetPoint" />
          </mxGeometry>
        </mxCell>
        <mxCell id="HjVEWoM3Lkzaa9PTXGWl-60" value="id_name:&amp;nbsp; &amp;nbsp; int &quot;foreign key&quot;" style="text;html=1;align=left;verticalAlign=middle;resizable=0;points=[];autosize=1;strokeColor=none;fillColor=none;" vertex="1" parent="1">
          <mxGeometry x="480" y="490" width="170" height="30" as="geometry" />
        </mxCell>
        <mxCell id="HjVEWoM3Lkzaa9PTXGWl-62" value="id_Ticket:&amp;nbsp; &amp;nbsp; int &quot;foreign key&quot;" style="text;html=1;align=left;verticalAlign=middle;resizable=0;points=[];autosize=1;strokeColor=none;fillColor=none;" vertex="1" parent="1">
          <mxGeometry x="480" y="510" width="170" height="30" as="geometry" />
        </mxCell>
        <mxCell id="HjVEWoM3Lkzaa9PTXGWl-63" value="" style="rounded=0;whiteSpace=wrap;html=1;align=left;" vertex="1" parent="1">
          <mxGeometry x="40" y="600" width="140" height="60" as="geometry" />
        </mxCell>
        <mxCell id="HjVEWoM3Lkzaa9PTXGWl-64" value="&lt;b&gt;sex&lt;/b&gt;" style="text;whiteSpace=wrap;html=1;" vertex="1" parent="1">
          <mxGeometry x="40" y="570" width="80" height="30" as="geometry" />
        </mxCell>
        <mxCell id="HjVEWoM3Lkzaa9PTXGWl-65" value="id_sex:&amp;nbsp; &amp;nbsp; int" style="text;html=1;align=left;verticalAlign=middle;resizable=0;points=[];autosize=1;strokeColor=none;fillColor=none;" vertex="1" parent="1">
          <mxGeometry x="40" y="600" width="90" height="30" as="geometry" />
        </mxCell>
        <mxCell id="HjVEWoM3Lkzaa9PTXGWl-66" value="name_sex:&amp;nbsp; &amp;nbsp; text" style="text;html=1;align=left;verticalAlign=middle;resizable=0;points=[];autosize=1;strokeColor=none;fillColor=none;" vertex="1" parent="1">
          <mxGeometry x="40" y="630" width="110" height="30" as="geometry" />
        </mxCell>
        <mxCell id="HjVEWoM3Lkzaa9PTXGWl-67" value="" style="endArrow=none;html=1;rounded=0;exitX=0;exitY=0.25;exitDx=0;exitDy=0;entryX=1;entryY=0.25;entryDx=0;entryDy=0;align=left;" edge="1" parent="1">
          <mxGeometry width="50" height="50" relative="1" as="geometry">
            <mxPoint x="40" y="630" as="sourcePoint" />
            <mxPoint x="180" y="630" as="targetPoint" />
          </mxGeometry>
        </mxCell>
        <mxCell id="HjVEWoM3Lkzaa9PTXGWl-68" value="" style="rounded=0;whiteSpace=wrap;html=1;align=left;" vertex="1" parent="1">
          <mxGeometry x="40" y="390" width="160" height="150" as="geometry" />
        </mxCell>
        <mxCell id="HjVEWoM3Lkzaa9PTXGWl-69" value="id_name:&amp;nbsp; &amp;nbsp; int" style="text;html=1;align=left;verticalAlign=middle;resizable=0;points=[];autosize=1;strokeColor=none;fillColor=none;" vertex="1" parent="1">
          <mxGeometry x="40" y="390" width="100" height="30" as="geometry" />
        </mxCell>
        <mxCell id="HjVEWoM3Lkzaa9PTXGWl-70" value="name:&amp;nbsp; &amp;nbsp; text" style="text;html=1;align=left;verticalAlign=middle;resizable=0;points=[];autosize=1;strokeColor=none;fillColor=none;" vertex="1" parent="1">
          <mxGeometry x="40" y="420" width="90" height="30" as="geometry" />
        </mxCell>
        <mxCell id="HjVEWoM3Lkzaa9PTXGWl-71" value="" style="endArrow=none;html=1;rounded=0;exitX=0;exitY=0.25;exitDx=0;exitDy=0;entryX=0.987;entryY=0.211;entryDx=0;entryDy=0;align=left;entryPerimeter=0;" edge="1" parent="1" target="HjVEWoM3Lkzaa9PTXGWl-68">
          <mxGeometry width="50" height="50" relative="1" as="geometry">
            <mxPoint x="40" y="420" as="sourcePoint" />
            <mxPoint x="180" y="420" as="targetPoint" />
          </mxGeometry>
        </mxCell>
        <mxCell id="HjVEWoM3Lkzaa9PTXGWl-72" value="&lt;span style=&quot;color: rgb(33, 33, 33); font-family: monospace; font-size: 14px; font-style: normal; font-variant-ligatures: normal; font-variant-caps: normal; font-weight: 700; letter-spacing: normal; orphans: 2; text-align: right; text-indent: 0px; text-transform: none; widows: 2; word-spacing: 0px; -webkit-text-stroke-width: 0px; background-color: rgb(255, 255, 255); text-decoration-thickness: initial; text-decoration-style: initial; text-decoration-color: initial; float: none; display: inline !important;&quot;&gt;Name&lt;/span&gt;" style="text;whiteSpace=wrap;html=1;" vertex="1" parent="1">
          <mxGeometry x="40" y="360" width="60" height="30" as="geometry" />
        </mxCell>
        <mxCell id="HjVEWoM3Lkzaa9PTXGWl-73" value="age:&amp;nbsp; &amp;nbsp; float" style="text;html=1;align=left;verticalAlign=middle;resizable=0;points=[];autosize=1;strokeColor=none;fillColor=none;" vertex="1" parent="1">
          <mxGeometry x="40" y="440" width="80" height="30" as="geometry" />
        </mxCell>
        <mxCell id="HjVEWoM3Lkzaa9PTXGWl-74" value="SibSp:&amp;nbsp; &amp;nbsp; int" style="text;html=1;align=left;verticalAlign=middle;resizable=0;points=[];autosize=1;strokeColor=none;fillColor=none;" vertex="1" parent="1">
          <mxGeometry x="40" y="460" width="80" height="30" as="geometry" />
        </mxCell>
        <mxCell id="HjVEWoM3Lkzaa9PTXGWl-75" value="Parch:&amp;nbsp; &amp;nbsp; int" style="text;html=1;align=left;verticalAlign=middle;resizable=0;points=[];autosize=1;strokeColor=none;fillColor=none;" vertex="1" parent="1">
          <mxGeometry x="40" y="480" width="80" height="30" as="geometry" />
        </mxCell>
        <mxCell id="HjVEWoM3Lkzaa9PTXGWl-76" value="id_sex:&amp;nbsp; &amp;nbsp; int &quot;foreign key&quot;" style="text;html=1;align=left;verticalAlign=middle;resizable=0;points=[];autosize=1;strokeColor=none;fillColor=none;" vertex="1" parent="1">
          <mxGeometry x="40" y="510" width="160" height="30" as="geometry" />
        </mxCell>
        <mxCell id="HjVEWoM3Lkzaa9PTXGWl-78" value="" style="edgeStyle=entityRelationEdgeStyle;fontSize=12;html=1;endArrow=ERoneToMany;rounded=0;exitX=1;exitY=0.25;exitDx=0;exitDy=0;" edge="1" parent="1" source="HjVEWoM3Lkzaa9PTXGWl-63" target="HjVEWoM3Lkzaa9PTXGWl-76">
          <mxGeometry width="100" height="100" relative="1" as="geometry">
            <mxPoint x="420" y="420" as="sourcePoint" />
            <mxPoint x="520" y="320" as="targetPoint" />
          </mxGeometry>
        </mxCell>
        <mxCell id="HjVEWoM3Lkzaa9PTXGWl-81" value="" style="edgeStyle=entityRelationEdgeStyle;fontSize=12;html=1;endArrow=ERoneToMany;rounded=0;entryX=1.004;entryY=0.873;entryDx=0;entryDy=0;entryPerimeter=0;" edge="1" parent="1" target="HjVEWoM3Lkzaa9PTXGWl-55">
          <mxGeometry width="100" height="100" relative="1" as="geometry">
            <mxPoint x="680" y="250" as="sourcePoint" />
            <mxPoint x="712.76" y="520.2" as="targetPoint" />
            <Array as="points">
              <mxPoint x="690" y="260" />
              <mxPoint x="839.53" y="330" />
            </Array>
          </mxGeometry>
        </mxCell>
        <mxCell id="HjVEWoM3Lkzaa9PTXGWl-84" value="" style="edgeStyle=entityRelationEdgeStyle;fontSize=12;html=1;endArrow=ERoneToMany;rounded=0;exitX=1.005;exitY=0.118;exitDx=0;exitDy=0;exitPerimeter=0;entryX=-0.023;entryY=0.533;entryDx=0;entryDy=0;entryPerimeter=0;" edge="1" parent="1" source="HjVEWoM3Lkzaa9PTXGWl-68" target="HjVEWoM3Lkzaa9PTXGWl-57">
          <mxGeometry width="100" height="100" relative="1" as="geometry">
            <mxPoint x="460" y="470" as="sourcePoint" />
            <mxPoint x="560" y="370" as="targetPoint" />
          </mxGeometry>
        </mxCell>
        <mxCell id="HjVEWoM3Lkzaa9PTXGWl-85" value="&lt;span style=&quot;color: rgb(33, 33, 33); font-family: monospace; font-size: 14px; font-style: normal; font-variant-ligatures: normal; font-variant-caps: normal; font-weight: 700; letter-spacing: normal; orphans: 2; text-align: right; text-indent: 0px; text-transform: none; widows: 2; word-spacing: 0px; -webkit-text-stroke-width: 0px; background-color: rgb(255, 255, 255); text-decoration-thickness: initial; text-decoration-style: initial; text-decoration-color: initial; float: none; display: inline !important;&quot;&gt;Passenger&lt;/span&gt;" style="text;whiteSpace=wrap;html=1;" vertex="1" parent="1">
          <mxGeometry x="480" y="400" width="100" height="40" as="geometry" />
        </mxCell>
      </root>
    </mxGraphModel>
  </diagram>
</mxfile>
